<svg width="416" height="147" viewBox="0 0 416 147" fill="none" xmlns="http://www.w3.org/2000/svg">
<path d="M174.822 113.993V102.329C180.174 97.8966 185.359 93.5087 190.376 89.1582C195.477 84.8076 199.992 80.5019 203.923 76.2409C207.936 71.9725 211.114 67.8308 213.455 63.8236C215.88 59.7193 217.093 55.7494 217.093 51.9063C217.093 48.3094 216.089 45.1304 214.083 42.3693C212.159 39.6083 208.94 38.2353 204.424 38.2353C199.825 38.2353 196.354 39.7352 194.013 42.75C191.672 45.7573 190.501 49.3989 190.501 53.6599H174.948C175.115 47.2199 176.537 41.8694 179.212 37.6084C181.888 33.2579 185.442 30.0342 189.874 27.9447C194.306 25.7732 199.281 24.6836 204.8 24.6836C213.748 24.6836 220.688 27.1537 225.622 32.0863C230.639 36.9368 233.148 43.2499 233.148 51.0256C233.148 55.8762 232.019 60.5998 229.761 65.1967C227.587 69.8009 224.702 74.2336 221.106 78.4946C217.511 82.7631 213.622 86.7777 209.441 90.5387C205.26 94.2177 201.205 97.6429 197.274 100.822H235.28V113.993H174.822ZM280.75 113.993V97.6877H237.476V84.8898L278.617 26.1911H296.805V83.763H308.345V97.6877H296.805V113.993H280.75ZM254.66 83.763H281.753V43.8768L254.66 83.763Z" fill="white"/>
<path d="M332.76 24.6749V33.2417C332.76 35.2789 333.701 36.2938 335.585 36.2938C336.813 36.2938 337.95 36.1519 338.997 35.8758C340.057 35.5997 341.124 35.2341 342.199 34.7864V24.6749H348.582V48.0767H342.199V38.7861C340.72 39.5622 339.345 40.1145 338.076 40.4354C336.806 40.7563 335.578 40.9205 334.392 40.9205C331.839 40.9205 329.864 40.2711 328.469 38.9727C327.073 37.6593 326.376 35.8013 326.376 33.3835V24.6749H332.76ZM367.782 48.0767L366.547 44.8978H366.38C365.305 46.2485 364.196 47.1888 363.052 47.7186C361.922 48.241 360.443 48.4948 358.615 48.4948C356.368 48.4948 354.597 47.8529 353.299 46.5694C352.016 45.2859 351.373 43.4576 351.373 41.0846C351.373 38.5996 352.239 36.7788 353.968 35.5998C355.713 34.4207 358.336 33.764 361.838 33.6371L365.898 33.5103V32.488C365.898 30.115 364.684 28.9284 362.257 28.9284C360.387 28.9284 358.189 29.4882 355.664 30.6225L353.55 26.3092C356.243 24.8988 359.229 24.1973 362.508 24.1973C365.647 24.1973 368.054 24.8838 369.729 26.2494C371.403 27.615 372.24 29.6971 372.24 32.488V48.0767H367.782ZM365.898 37.2341L363.428 37.3161C361.573 37.3758 360.192 37.7116 359.285 38.3235C358.378 38.9354 357.924 39.8757 357.924 41.1293C357.924 42.9278 358.957 43.8308 361.022 43.8308C362.501 43.8308 363.68 43.4053 364.559 42.5546C365.452 41.7039 365.898 40.5696 365.898 39.1593V37.2341ZM385.977 48.4948C378.694 48.4948 375.053 44.4949 375.053 36.5027C375.053 32.5253 376.043 29.4881 378.024 27.3986C380.005 25.2943 382.845 24.2346 386.542 24.2346C389.25 24.2346 391.677 24.7719 393.826 25.8315L391.942 30.7717C390.938 30.3613 390.003 30.0328 389.138 29.7866C388.273 29.5179 387.408 29.3836 386.542 29.3836C383.222 29.3836 381.561 31.7417 381.561 36.4579C381.561 41.0398 383.222 43.3233 386.542 43.3233C387.771 43.3233 388.908 43.1666 389.954 42.8457C391 42.5099 392.047 41.9951 393.094 41.2936V46.756C392.061 47.4127 391.014 47.8679 389.954 48.1216C388.908 48.3679 387.582 48.4948 385.977 48.4948ZM411.037 48.0767L409.802 44.8978H409.635C408.561 46.2485 407.452 47.1888 406.308 47.7186C405.177 48.241 403.698 48.4948 401.871 48.4948C399.624 48.4948 397.852 47.8529 396.555 46.5694C395.271 45.2859 394.628 43.4576 394.628 41.0846C394.628 38.5996 395.494 36.7788 397.224 35.5998C398.968 34.4207 401.592 33.764 405.094 33.6371L409.154 33.5103V32.488C409.154 30.115 407.94 28.9284 405.512 28.9284C403.642 28.9284 401.445 29.4882 398.919 30.6225L396.805 26.3092C399.498 24.8988 402.484 24.1973 405.763 24.1973C408.902 24.1973 411.31 24.8838 412.984 26.2494C414.658 27.615 415.495 29.6971 415.495 32.488V48.0767H411.037ZM409.154 37.2341L406.684 37.3161C404.829 37.3758 403.447 37.7116 402.54 38.3235C401.633 38.9354 401.18 39.8757 401.18 41.1293C401.18 42.9278 402.212 43.8308 404.277 43.8308C405.756 43.8308 406.935 43.4053 407.814 42.5546C408.708 41.7039 409.154 40.5696 409.154 39.1593V37.2341Z" fill="white"/>
<path d="M96.6524 62.9194H85.1566C84.1783 62.9194 83.3806 62.121 83.3806 61.1434V49.6514C83.3806 47.6441 81.7523 46.0098 79.7375 46.0098H65.9889C63.9823 46.0098 62.3465 47.6366 62.3465 49.6514V61.1434C62.3465 62.121 61.5488 62.9194 60.5697 62.9194H49.0747C47.0681 62.9194 45.4316 64.5462 45.4316 66.5611V80.3066C45.4316 82.314 47.0599 83.9483 49.0747 83.9483H60.5697C61.5488 83.9483 62.3465 84.7467 62.3465 85.7243V97.2163C62.3465 99.2236 63.9741 100.858 65.9889 100.858H79.7293C81.7359 100.858 83.3724 99.2311 83.3724 97.2163V85.7243C83.3724 84.7467 84.1701 83.9483 85.1484 83.9483H96.6442C98.65 83.9483 100.287 82.3215 100.287 80.3066V66.5611C100.295 64.5462 98.6583 62.9194 96.6524 62.9194Z" fill="white"/>
<path d="M119.964 73.4418C119.964 55.2411 114.512 38.8762 105.837 27.5857C103.584 24.6605 106.684 20.6457 110.096 22.0636C110.236 22.1158 110.375 22.1756 110.516 22.2353C117.135 25.0337 123.072 29.0409 128.178 34.1377C133.277 39.2419 137.281 45.1819 140.085 51.801C142.988 58.6589 144.46 65.9421 144.46 73.4418C144.46 80.934 142.988 88.2172 140.085 95.0751C137.289 101.694 133.277 107.627 128.178 112.738C123.08 117.835 117.135 121.835 110.516 124.641C110.375 124.701 110.236 124.76 110.096 124.813C106.684 126.23 103.584 122.223 105.837 119.29C114.512 107.992 119.964 91.635 119.964 73.4418Z" fill="white"/>
<path d="M66.523 4.50496V15.3701C66.523 17.3775 68.1513 19.0116 70.1661 19.0116H74.9845C76.9912 19.0116 78.6277 17.3849 78.6277 15.3701V4.50496C78.6277 2.49759 76.9994 0.863281 74.9845 0.863281H70.1661C68.1513 0.863281 66.523 2.49013 66.523 4.50496ZM22.9668 20.422L19.5625 23.8324C18.1394 25.2503 18.1394 27.556 19.5625 28.9738L27.2428 36.66C28.6651 38.0779 30.9672 38.0779 32.3903 36.66L35.7946 33.2498C37.2169 31.832 37.2169 29.5261 35.7946 28.1082L28.1144 20.422C26.6913 19.0042 24.3809 19.0042 22.9668 20.422ZM0 71.0317V75.8449C0 77.8523 1.62829 79.4939 3.64312 79.4939H14.5053C16.5119 79.4939 18.1477 77.8597 18.1477 75.8449V71.0317C18.1477 69.0243 16.5201 67.39 14.5053 67.39H3.64312C1.62829 67.39 0 69.0169 0 71.0317ZM27.2428 110.209L19.5625 117.895C18.1394 119.313 18.1394 121.619 19.5625 123.037L22.9668 126.447C24.3892 127.865 26.6913 127.865 28.1144 126.447L35.7946 118.761C37.2169 117.343 37.2169 115.037 35.7946 113.619L32.3903 110.209C30.9672 108.799 28.6569 108.799 27.2428 110.209ZM66.523 131.499V142.364C66.523 144.371 68.1513 146.006 70.1661 146.006H74.9845C76.9912 146.006 78.6277 144.379 78.6277 142.364V131.499C78.6277 129.492 76.9994 127.857 74.9845 127.857H70.1661C68.1513 127.865 66.523 129.492 66.523 131.499Z" fill="white"/>
</svg>
