<svg width="18" height="18" viewBox="0 0 18 18" fill="none" xmlns="http://www.w3.org/2000/svg">
<path fill-rule="evenodd" clip-rule="evenodd" d="M9.19902 0.160156C5.26427 0.259071 2.09794 3.42541 1.99902 7.36016C2.06578 8.52352 2.38664 9.65812 2.93902 10.6842L2.99502 10.7842C7.34702 17.7602 8.64702 17.7602 9.19902 17.7602C10.063 17.7602 10.995 17.1522 13.199 14.0522C14.355 12.4522 15.347 10.8522 15.387 10.7802L15.443 10.6842C16.001 9.65942 16.3273 8.52474 16.399 7.36016C16.3001 3.42541 13.1338 0.259071 9.19902 0.160156ZM14.399 10.1602C14.399 10.1602 10.399 16.5602 9.19902 16.5602C7.99902 16.5602 3.99902 10.1602 3.99902 10.1602C3.534 9.29526 3.26112 8.34018 3.19902 7.36016C3.19902 4.04645 5.88531 1.36016 9.19902 1.36016C12.5127 1.36016 15.199 4.04645 15.199 7.36016C15.1332 8.34109 14.8562 9.29621 14.387 10.1602H14.399Z" fill="white"/>
<path fill-rule="evenodd" clip-rule="evenodd" d="M9.19902 3.75977C7.43171 3.75977 5.99902 5.19245 5.99902 6.95977C5.99902 8.72708 7.43171 10.1598 9.19902 10.1598C10.9663 10.1598 12.399 8.72708 12.399 6.95977C12.399 5.19245 10.9663 3.75977 9.19902 3.75977ZM9.19902 8.95977C8.09445 8.95977 7.19902 8.06434 7.19902 6.95977C7.19902 5.8552 8.09445 4.95977 9.19902 4.95977C10.3036 4.95977 11.199 5.8552 11.199 6.95977C11.199 8.06434 10.3036 8.95977 9.19902 8.95977Z" fill="white"/>
</svg>
