<svg width="17" height="16" viewBox="0 0 17 16" fill="none" xmlns="http://www.w3.org/2000/svg">
<path d="M5.3245 0C5.40616 0 5.40616 2.28882e-08 5.48469 0.0829012C5.56635 0.165803 5.70635 0.474197 5.70635 0.64C5.70635 0.802614 5.80821 1.14468 5.88673 1.46991C6.04692 1.87804 6.21025 2.93982 6.44896 3.51056C6.69081 4.08131 6.77248 4.40972 6.53062 4.73495C6.28877 5.14309 4.76227 6.6959 4.76227 6.6959C4.76227 6.6959 5.16431 7.51216 5.64488 8C6.04692 8.57075 6.69081 9.38701 7.4949 10.0407C8.29898 10.7772 9.18473 11.4277 10.0673 11.8358C10.9531 10.9398 11.6755 10.2033 11.9174 10.0407C12.1592 9.87804 12.1592 9.79514 12.5612 9.96094C12.9633 10.1236 13.5255 10.3691 14.1694 10.4488C14.7316 10.5317 15.3755 10.6114 15.7776 10.6943C16.1796 10.7772 16.1796 10.7772 16.2613 10.9398C16.4215 11.1024 16.5 11.3479 16.5 11.4277C16.5 11.5106 16.5 11.7561 16.5 12.5723C16.5 13.3886 16.5 14.5301 16.5 14.7756C16.5 15.0211 16.5 15.0211 16.4215 15.1837C16.3398 15.3464 16.2613 15.7545 16.2613 15.7545C16.2613 15.8374 15.8592 16 15.6174 16C15.3755 16 14.4898 16 13.9276 15.9171C13.3653 15.8374 11.8388 15.509 11.2735 15.2666C10.7112 15.1008 8.86121 14.4504 6.61229 12.735C4.52042 11.1024 2.99391 8.89916 2.10817 7.10403C1.22242 5.3057 0.741853 3.34795 0.660189 2.36907C0.5 1.3902 0.5 0.982065 0.5 0.736548C0.581665 0.491032 0.820377 0.245516 0.983707 0.165803C1.14389 0.0829012 1.38575 0 1.62446 0C1.86631 0 2.51021 0 3.39596 0C4.27856 0 5.3245 0 5.3245 0Z" fill="white"/>
</svg>
