<?xml version="1.0" encoding="utf-8"?>
<!-- Generator: Adobe Illustrator 25.4.1, SVG Export Plug-In . SVG Version: 6.00 Build 0)  -->
<svg version="1.1" id="Layer_1" xmlns="http://www.w3.org/2000/svg" xmlns:xlink="http://www.w3.org/1999/xlink" x="0px" y="0px"
	 viewBox="0 0 3087.5 709.6" style="enable-background:new 0 0 3087.5 709.6;" xml:space="preserve">
<style type="text/css">
	.st0{fill:#1B1B29;}
</style>
<g>
	<path class="st0" d="M2579.6,234.6c-2.4,10-7.6,17.7-15.3,23.3c-8,5.6-18.5,8.4-31.3,8.4c-17.6,0-32.1-6-42.2-18.1
		c-10-12-15.3-28.9-15.3-50.2c0-21.3,5.2-38.1,15.3-50.2c10-12,24.1-18.1,42.2-18.1c12.9,0,23.3,3.2,30.9,8.8
		c7.6,6,12.9,14,15.3,24.5v0.4h40.9v-0.8c-3.6-21.3-13.2-37.7-28.5-49.8c-15.3-11.6-34.5-17.7-58.2-17.7c-19.7,0-38.2,4.4-52.2,12.8
		c-14.1,8.4-25.3,20.9-32.9,36.1c-7.6,16.1-11.6,33.7-11.6,53.8c0,20.1,4,37.7,11.6,53c7.6,15.3,18.9,27.3,32.9,35.7
		c14,8.4,32.5,12.8,52.2,12.8c23.7,0,43.4-5.6,58.2-17.3c15.3-11.6,24.5-27.7,28.5-47.8v-0.8h-40.5V234.6z"/>
	<path class="st0" d="M2672,296.4h-35.7V122.2c0-11.2,9.2-20.5,20.5-20.5h15.3V296.4z"/>
	<path class="st0" d="M2724.6,157.5h-35.7v138.9h35.7V157.5z"/>
	<path class="st0" d="M2823.7,154.3c-10.8,0-20.5,2.4-28.9,7.2c-7.2,4.4-12.9,10-16.9,17.3v-20.9h-4h-32.1v81.5v57.4h36.2V239v-14.4
		c0-12.8,3.2-22.5,9.6-29.7c6.4-7.2,14.9-10.8,24.9-10.8c10.4,0,17.6,3.2,22.9,9.6c4.8,6.4,7.2,15.7,7.2,27.3V296h35.7v-77.9
		c0-20.9-4.8-36.9-14.5-47.8C2854.2,159.5,2841,154.3,2823.7,154.3z"/>
	<path class="st0" d="M2931.7,157.5H2896v138.9h35.7V157.5z"/>
	<path class="st0" d="M3038.5,263.9c-5.6,3.6-12,5.6-19.3,5.6c-10,0-18.5-3.6-25.3-11.2c-6.8-7.6-10.4-17.7-10.4-30.9
		c0-13.2,3.6-23.7,10.4-30.9c6.8-7.6,15.3-11.2,25.3-11.2c7.6,0,14,2,19.3,5.6c5.6,4,9.2,9.2,11.2,15.7h37.7
		c-3.2-16.1-11.2-28.9-23.3-38.1c-12-9.2-26.9-14-45-14c-14.1,0-26.9,3.2-37.3,9.2c-10.8,6-19.3,14.8-25.7,25.7
		c-6.4,10.8-9.3,23.7-9.3,37.7c0,14,3.2,26.9,9.3,37.7c6.4,10.8,14.9,19.7,25.7,25.7c10.8,6,23.3,9.2,37.3,9.2
		c17.6,0,32.5-4.8,45-14.4c12-9.6,20.1-22.1,23.3-37.7h-37.7C3047.8,254.7,3044.1,259.9,3038.5,263.9z"/>
	<path class="st0" d="M2706.5,102.6c-11.2,0-20.5,9.2-20.5,20.5s9.3,20.5,20.5,20.5c11.3,0,20.5-9.2,20.5-20.5
		S2718.1,102.6,2706.5,102.6z"/>
	<path class="st0" d="M2913.7,102.6c-11.2,0-20.5,9.2-20.5,20.5s9.3,20.5,20.5,20.5c11.3,0,20.5-9.2,20.5-20.5
		S2924.9,102.6,2913.7,102.6z"/>
	<path class="st0" d="M520,0H412.4L260.3,432.4L110.1,1.3L109.5,0H0l197.7,539.4l0.6,0.6h123.3L518.7,2.5L520,0z"/>
	<path class="st0" d="M740.8,174c-28.8-16.3-61.9-24.4-99.5-24.4c-40,0-74.5,8.8-104.5,25.7c-29.4,16.9-52.6,41.3-69.5,72
		c-16.9,30.7-25,65.7-25,105.1c0,38.8,8.8,73.2,25.7,103.2c16.9,30,40,52.6,70.1,69.5c30,16.3,63.8,24.4,102,24.4
		c30.7,0,58.2-5.6,82.6-16.9c24.4-11.3,45.1-26.9,61.3-46.3c16.9-20,28.8-41.9,35.7-65.7H719.6c-6.9,14.4-16.9,26.3-30.7,35
		c-13.8,8.8-30.7,13.8-50.7,13.8c-26.9,0-49.4-8.8-68.2-25.7c-18.8-16.9-29.4-40-31.3-70.1h289.7c0.6-6.9,0.6-13.1,1.3-19.4
		c0-6.3,0.6-11.9,0.6-17.5c0-35-8.1-66.3-24.4-95.1C789.6,212.8,769.6,190.9,740.8,174z M542.5,311.6c5-27.5,16.9-48.2,35.7-61.9
		c18.8-13.8,40-20.6,63.8-20.6c25,0,46.3,7.5,63.2,22.5c16.9,15,26.3,35,27.5,60.1H542.5z"/>
	<path class="st0" d="M1300.9,233.4c20.6,0,38.2,5,53.2,15.6c15,10.6,25,25,30.7,43.2h103.9c-9.4-44.4-30.7-79.5-63.8-104.5
		c-33.2-25.7-74.5-38.2-123.3-38.2c-38.8,0-73.2,8.8-103.2,25.7c-30,16.9-53.2,40.7-70.1,70.7c-16.9,30-25.7,65.1-25.7,103.9
		c0,38.8,8.8,73.8,25.7,103.9c16.9,30,40.7,53.8,70.1,70.7c30,16.9,63.8,25.7,103.2,25.7c48.8,0,89.5-13.1,123.3-39.4
		c33.2-26.3,54.4-60.7,63.8-103.9h-103.9c-5,18.8-15,33.8-30.7,43.8c-15,10-33.2,15.6-53.2,15.6c-26.9,0-50.1-10-69.5-30.7
		c-18.8-20.6-28.2-48.8-28.2-85.1s9.4-65.1,28.2-85.1C1250.8,243.4,1274,233.4,1300.9,233.4z"/>
	<path class="st0" d="M1616.9,158.9h-98.2v381.7h98.2V158.9z"/>
	<path class="st0" d="M998.6,56.3h-41.9c-31.3,0-56.3,25-56.3,56.3v45.7h-65.1v82.6h65.1v166.4c0,50.1,11.9,84.5,36.3,103.9
		c24.4,19.4,56.3,29.4,96.4,29.4h67v-83.8h-47.6c-19.4,0-33.2-3.8-41.3-10.6c-8.1-6.9-11.9-19.4-11.9-38.2V240.9h103.2v-82H999.3
		V56.3H998.6z"/>
	<path class="st0" d="M1810.2,56.3h-41.9c-31.3,0-56.3,25-56.3,56.3v45.7h-65.1v82.6h65.1v166.4c0,50.1,11.9,84.5,36.3,103.9
		c24.4,19.4,56.3,29.4,96.4,29.4h67v-83.8H1864c-19.4,0-33.2-3.8-41.3-10.6c-8.1-6.9-11.9-19.4-11.9-38.2V240.9h103.2v-82h-103.2
		V56.3H1810.2z"/>
	<path class="st0" d="M2348.3,158.9h-102.6l-108.2,252.2l-108.9-252.2h-102L2086.2,530l-77,179.6h102L2348.3,158.9z"/>
	<path class="st0" d="M1568.1,120.1c31.1,0,56.3-25.2,56.3-56.3c0-31.1-25.2-56.3-56.3-56.3s-56.3,25.2-56.3,56.3
		C1511.8,94.9,1537,120.1,1568.1,120.1z"/>
</g>
</svg>
